<svg width="72" height="72" viewBox="0 0 72 72" fill="none" xmlns="http://www.w3.org/2000/svg">
<g clip-path="url(#clip0_101_1618)">
<path d="M0 12C0 5.37259 5.37258 0 12 0L68 0C70.2091 0 72 1.79086 72 4L72 60C72 66.6274 66.6274 72 60 72L4 72C1.79086 72 0 70.2091 0 68L0 12Z" fill="url(#paint0_linear_101_1618)"/>
<path fill-rule="evenodd" clip-rule="evenodd" d="M13.515 72L60 72C66.6274 72 72 66.6274 72 60V4C72 1.79086 70.2091 0 68 0L49.5365 0L13.515 72Z" fill="url(#paint1_linear_101_1618)"/>
<path fill-rule="evenodd" clip-rule="evenodd" d="M68 1.5L12 1.5C6.20101 1.5 1.5 6.20101 1.5 12L1.5 68C1.5 69.3807 2.61929 70.5 4 70.5L60 70.5C65.799 70.5 70.5 65.799 70.5 60L70.5 4C70.5 2.61929 69.3807 1.5 68 1.5ZM12 0C5.37258 0 0 5.37258 0 12L0 68C0 70.2091 1.79086 72 4 72L60 72C66.6274 72 72 66.6274 72 60L72 4C72 1.79086 70.2091 0 68 0L12 0Z" fill="url(#paint2_linear_101_1618)"/>
</g>
<path d="M21.7208 12.6006L16.8289 22.2016C16.3786 23.0853 16.73 24.1668 17.6137 24.6171L33.6154 32.7703C34.4991 33.2206 35.5806 32.8692 36.0309 31.9855L40.9228 22.3845C41.3731 21.5008 41.0217 20.4193 40.138 19.969L24.1363 11.8157C23.2526 11.3655 22.1711 11.7168 21.7208 12.6006Z" fill="url(#paint3_linear_101_1618)"/>
<path d="M17.0516 22.3151L21.9436 12.7141C22.3312 11.9534 23.2621 11.6509 24.0228 12.0385L40.0245 20.1918C40.7852 20.5794 41.0877 21.5103 40.7001 22.271L35.8081 31.872C35.4205 32.6327 34.4896 32.9352 33.7289 32.5476L17.7272 24.3943C16.9665 24.0067 16.664 23.0758 17.0516 22.3151Z" stroke="url(#paint4_linear_101_1618)" stroke-opacity="0.4" stroke-width="0.5"/>
<path d="M35.9684 40.0154L31.0765 49.6164C30.6262 50.5002 30.9776 51.5816 31.8613 52.0319L47.863 60.1852C48.7468 60.6355 49.8282 60.2841 50.2785 59.4004L55.1705 49.7994C55.6207 48.9156 55.2694 47.8342 54.3856 47.3839L38.3839 39.2306C37.5002 38.7803 36.4187 39.1317 35.9684 40.0154Z" fill="url(#paint5_linear_101_1618)"/>
<path d="M31.2992 49.7299L36.1912 40.1289C36.5788 39.3682 37.5097 39.0657 38.2704 39.4534L54.2721 47.6066C55.0328 47.9942 55.3353 48.9251 54.9477 49.6859L50.0557 59.2869C49.6681 60.0476 48.7372 60.3501 47.9765 59.9624L31.9748 51.8092C31.2141 51.4216 30.9116 50.4907 31.2992 49.7299Z" stroke="url(#paint6_linear_101_1618)" stroke-opacity="0.4" stroke-width="0.5"/>
<path d="M40.0142 36.0319L49.6152 40.9239C50.499 41.3742 51.5804 41.0228 52.0307 40.139L60.184 24.1374C60.6343 23.2536 60.2829 22.1722 59.3991 21.7219L49.7981 16.8299C48.9144 16.3796 47.8329 16.731 47.3826 17.6148L39.2294 33.6164C38.7791 34.5002 39.1305 35.5816 40.0142 36.0319Z" fill="url(#paint7_linear_101_1618)"/>
<path d="M49.7287 40.7011L40.1277 35.8092C39.367 35.4216 39.0645 34.4906 39.4521 33.7299L47.6054 17.7283C47.993 16.9675 48.9239 16.6651 49.6846 17.0527L59.2856 21.9446C60.0464 22.3322 60.3488 23.2631 59.9612 24.0239L51.808 40.0255C51.4204 40.7863 50.4894 41.0887 49.7287 40.7011Z" stroke="url(#paint8_linear_101_1618)" stroke-opacity="0.4" stroke-width="0.5"/>
<path d="M31.9849 35.9697L22.3839 31.0777C21.5001 30.6274 20.4187 30.9788 19.9684 31.8626L11.8151 47.8642C11.3648 48.748 11.7162 49.8294 12.6 50.2797L22.201 55.1717C23.0847 55.622 24.1662 55.2706 24.6164 54.3868L32.7697 38.3852C33.22 37.5014 32.8686 36.42 31.9849 35.9697Z" fill="url(#paint9_linear_101_1618)"/>
<path d="M22.2704 31.3005L31.8714 36.1924C32.6321 36.58 32.9346 37.5109 32.5469 38.2717L24.3937 54.2733C24.0061 55.0341 23.0752 55.3365 22.3144 54.9489L12.7134 50.057C11.9527 49.6694 11.6503 48.7384 12.0379 47.9777L20.1911 31.9761C20.5787 31.2153 21.5096 30.9129 22.2704 31.3005Z" stroke="url(#paint10_linear_101_1618)" stroke-opacity="0.4" stroke-width="0.5"/>
<defs>
<linearGradient id="paint0_linear_101_1618" x1="72" y1="72" x2="0" y2="0" gradientUnits="userSpaceOnUse">
<stop stop-color="#021018"/>
<stop offset="0.70834" stop-color="#053047"/>
<stop offset="1" stop-color="#085076"/>
</linearGradient>
<linearGradient id="paint1_linear_101_1618" x1="-0.000671185" y1="44" x2="140.095" y2="25.1399" gradientUnits="userSpaceOnUse">
<stop stop-color="#021018"/>
<stop offset="0.214542" stop-color="#021018"/>
<stop offset="0.607506" stop-color="#053047"/>
<stop offset="1" stop-color="#06405E"/>
</linearGradient>
<linearGradient id="paint2_linear_101_1618" x1="70.56" y1="70.56" x2="1.44" y2="1.44" gradientUnits="userSpaceOnUse">
<stop stop-color="#0D80BE"/>
<stop offset="0.390625" stop-color="#3FB3F2"/>
<stop offset="1" stop-color="#9FD9F8"/>
</linearGradient>
<linearGradient id="paint3_linear_101_1618" x1="23.7287" y1="12.6158" x2="35.2156" y2="33.5857" gradientUnits="userSpaceOnUse">
<stop stop-color="white"/>
<stop offset="1" stop-color="#9FD9F8"/>
</linearGradient>
<linearGradient id="paint4_linear_101_1618" x1="22.7247" y1="12.6082" x2="40.4704" y2="27.1912" gradientUnits="userSpaceOnUse">
<stop stop-color="white"/>
<stop offset="1" stop-color="white" stop-opacity="0.1"/>
</linearGradient>
<linearGradient id="paint5_linear_101_1618" x1="37.9763" y1="40.0307" x2="49.4632" y2="61.0005" gradientUnits="userSpaceOnUse">
<stop stop-color="white"/>
<stop offset="1" stop-color="#9FD9F8"/>
</linearGradient>
<linearGradient id="paint6_linear_101_1618" x1="36.9724" y1="40.0231" x2="54.718" y2="54.606" gradientUnits="userSpaceOnUse">
<stop stop-color="white"/>
<stop offset="1" stop-color="white" stop-opacity="0.1"/>
</linearGradient>
<linearGradient id="paint7_linear_101_1618" x1="48.198" y1="16.0146" x2="50.4276" y2="46.7412" gradientUnits="userSpaceOnUse">
<stop offset="0.0104167" stop-color="#9FD9F8"/>
<stop offset="0.265625" stop-color="#3FB3F2"/>
<stop offset="1" stop-color="#3FB3F2" stop-opacity="0.2"/>
</linearGradient>
<linearGradient id="paint8_linear_101_1618" x1="48.5904" y1="17.2223" x2="53.1898" y2="41.363" gradientUnits="userSpaceOnUse">
<stop stop-color="white"/>
<stop offset="1" stop-color="white" stop-opacity="0.1"/>
</linearGradient>
<linearGradient id="paint9_linear_101_1618" x1="21.9838" y1="30.8739" x2="21.1755" y2="57.1251" gradientUnits="userSpaceOnUse">
<stop offset="0.0104167" stop-color="#9FD9F8"/>
<stop offset="0.265625" stop-color="#3FB3F2"/>
<stop offset="1" stop-color="#3FB3F2" stop-opacity="0.2"/>
</linearGradient>
<linearGradient id="paint10_linear_101_1618" x1="21.9838" y1="30.8739" x2="25.8293" y2="55.6725" gradientUnits="userSpaceOnUse">
<stop stop-color="white"/>
<stop offset="1" stop-color="white" stop-opacity="0.1"/>
</linearGradient>
<clipPath id="clip0_101_1618">
<rect width="72" height="72" fill="white"/>
</clipPath>
</defs>
</svg>
